HIERARCHY
ROOT hip
{
	OFFSET 0.000000 0.000000 0.000000 
	CHANNELS 6 Xposition Yposition Zposition Xrotation Zrotation Yrotation
	JOINT abdomen
	{
		OFFSET 0.000000 3.402643 0.000000 
		CHANNELS 3 Xrotation Zrotation Yrotation
		JOINT chest
		{
			OFFSET 0.000000 8.438565 -0.680529 
			CHANNELS 3 Xrotation Zrotation Yrotation
			JOINT neck
			{
				OFFSET 0.000000 10.207942 -0.272212 
				CHANNELS 3 Xrotation Zrotation Yrotation
				JOINT head
				{
					OFFSET 0.000000 3.130431 0.000000 
					CHANNELS 3 Xrotation Zrotation Yrotation
					End Site
					{
						OFFSET 0.000000 3.130435 0.000000 
					}
				}
			}
			JOINT lCollar
			{
				OFFSET 3.470700 6.669187 -0.816635 
				CHANNELS 3 Yrotation Zrotation Xrotation
				JOINT lShldr
				{
					OFFSET 3.198488 0.000000 0.000000 
					CHANNELS 3 Zrotation Yrotation Xrotation
					JOINT lForeArm
					{
						OFFSET 10.139888 0.000000 0.000000 
						CHANNELS 3 Yrotation Zrotation Xrotation
						JOINT lHand
						{
							OFFSET 8.370511 0.000000 0.000000 
							CHANNELS 3 Zrotation Yrotation Xrotation
							End Site
							{
								OFFSET 4.083176 0.000000 0.000000 
							}
						}
					}
				}
			}
			JOINT rCollar
			{
				OFFSET -3.470700 6.669187 -0.816635 
				CHANNELS 3 Yrotation Zrotation Xrotation
				JOINT rShldr
				{
					OFFSET -3.198488 0.000000 0.000000 
					CHANNELS 3 Zrotation Yrotation Xrotation
					JOINT rForeArm
					{
						OFFSET -10.139888 0.000000 0.000000 
						CHANNELS 3 Yrotation Zrotation Xrotation
						JOINT rHand
						{
							OFFSET -8.370511 0.000000 0.000000 
							CHANNELS 3 Zrotation Yrotation Xrotation
							End Site
							{
								OFFSET -4.083176 0.000000 0.000000 
							}
						}
					}
				}
			}
		}
	}
	JOINT lThigh
	{
		OFFSET 5.308129 -1.633274 1.361059 
		CHANNELS 3 Xrotation Zrotation Yrotation
		JOINT lShin
		{
			OFFSET -2.041588 -20.007561 0.000000 
			CHANNELS 3 Xrotation Zrotation Yrotation
			JOINT lFoot
			{
				OFFSET 0.000000 -19.190928 -1.224953 
				CHANNELS 3 Xrotation Yrotation Zrotation
				End Site
				{
					OFFSET 0.000000 -2.449906 4.627600 
				}
			}
		}
	}
	JOINT rThigh
	{
		OFFSET -5.308129 -1.633274 1.361059 
		CHANNELS 3 Xrotation Zrotation Yrotation
		JOINT rShin
		{
			OFFSET 2.041588 -20.007561 0.000000 
			CHANNELS 3 Xrotation Zrotation Yrotation
			JOINT rFoot
			{
				OFFSET 0.000000 -19.190928 -1.224953 
				CHANNELS 3 Xrotation Yrotation Zrotation
				End Site
				{
					OFFSET 0.000000 -2.449906 4.627600 
				}
			}
		}
	}
}
MOTION
Frames: 16
Frame Time: 0.033333
-4.420899 54.155769 -13.444460 10.283202 0.000000 0.000000 29.822811 -7.874106 -5.629282 -33.427734 17.519531 0.283203 29.932966 15.896505 10.957512 -36.035160 -13.105468 2.294922 2.000000 -2.000000 0.000000 -71.142578 -5.712890 -0.976563 -115.448898 1.506134 -6.163702 27.960634 -57.797131 -97.314758 -2.000000 2.000000 0.000000 39.208984 21.502275 69.024200 116.068291 -14.337993 -5.330056 35.850197 -27.518566 -27.410789 -16.748251 14.697462 3.693630 15.370989 -4.647247 -0.660433 16.549294 -1.627846 1.252783 -16.782616 -9.782562 0.628279 14.752821 4.566590 0.242242 49.648823 -18.550827 13.647826 
-4.420899 53.169476 -13.444460 10.283202 0.000000 0.000000 29.822811 -7.874106 -5.629282 -33.437500 15.937500 0.292969 32.262344 13.229157 8.820765 -40.898438 -10.878906 2.783203 2.000000 -2.000000 0.000000 -67.402344 -5.644531 -1.778303 -115.435867 1.448942 -7.889311 22.526861 -58.173248 -93.085388 -2.000000 2.000000 0.000000 42.373047 22.519531 69.794922 112.337265 -13.966101 -6.365065 30.175558 -16.968464 -25.071335 -19.576235 13.786192 2.723651 20.616461 -4.563277 -0.883012 10.432791 -1.681111 1.127267 -18.971439 -9.744608 0.908020 19.259029 4.515994 0.319967 37.079552 -20.897671 8.575671 
-4.420899 51.881386 -13.444460 10.283202 0.000000 0.000000 29.822811 -7.874106 -5.629282 -33.457031 14.355468 0.283204 34.721909 10.622245 6.578012 -45.751957 -8.554687 3.056640 2.000000 -2.000000 0.000000 -63.632816 -5.498047 -2.548828 -115.435127 1.403743 -9.605723 16.853437 -58.340725 -88.617668 -2.000000 2.000000 0.000000 45.517578 23.564453 70.677734 108.597328 -13.528178 -7.367444 25.157957 -6.302494 -23.880579 -22.223276 12.859480 1.792156 25.786240 -4.497098 -1.013446 4.334744 -1.842773 0.975719 -21.110348 -9.607944 1.231573 23.837254 4.488181 0.407284 24.271713 -22.078119 3.012537 
-4.420899 50.284164 -13.444460 10.283202 0.000000 0.000000 29.822811 -7.874106 -5.629282 -33.476563 12.783204 0.292969 37.264771 8.154837 4.224932 -50.595711 -6.230468 3.125000 2.000000 -2.000000 0.000000 -59.921879 -5.341796 -3.300781 -115.427437 1.331068 -11.320570 11.391213 -58.310555 -84.289146 -2.000000 2.000000 0.000000 48.652344 24.511721 71.572266 104.899750 -13.019899 -8.415277 20.385975 4.429555 -23.620455 -24.830462 11.951520 1.003448 30.953840 -4.371403 -1.208394 -1.763390 -1.988564 0.828597 -23.223965 -9.616012 1.531748 28.446482 4.438464 0.447809 11.364479 -22.068226 -2.682656 
-4.420899 48.444046 -13.444460 10.283202 0.000000 0.000000 29.822811 -7.874106 -5.629282 -33.486332 11.210938 0.292969 39.837879 5.794687 1.808232 -55.332031 -3.925781 3.017578 2.000000 -2.000000 0.000000 -56.152344 -5.068359 -4.062500 -115.432617 1.269496 -13.045503 5.770296 -58.038502 -79.899269 -2.000000 2.000000 0.000000 51.875000 25.419920 72.539063 101.334526 -12.462774 -9.294809 15.495420 15.159151 -24.273457 -27.527544 10.927227 0.133398 36.215488 -4.245632 -1.399659 -7.881810 -1.974421 0.657143 -25.427080 -9.539900 1.856154 32.962925 4.398063 0.535530 -1.510727 -20.872568 -8.267018 
-4.420899 46.736416 -13.444460 10.283202 0.000000 0.000000 29.822811 -7.874106 -5.629282 -33.505859 9.648438 0.284840 42.433849 3.621165 -0.676535 -60.058590 -1.679687 2.685261 2.000000 -2.000000 0.000000 -52.382813 -4.863282 -4.843750 -115.420181 1.220633 -14.751488 0.423692 -57.512310 -75.715233 -2.000000 2.000000 0.000000 55.166016 26.220701 73.535156 97.627800 -11.832080 -10.276486 10.134081 25.790861 -25.974419 -30.107225 9.986752 -0.601701 41.258259 -4.059542 -1.599161 -13.999860 -2.086223 0.457067 -27.497223 -9.393641 2.027480 37.428658 4.368709 0.558988 -13.958286 -18.632275 -13.278149 
-4.697956 45.654430 -13.279619 8.828125 -0.927734 3.056482 29.822811 -7.874106 -5.629282 -30.253910 10.800781 -0.996093 42.191010 5.197937 -1.222618 -60.332031 -1.660156 2.695030 2.000000 -2.000000 0.000000 -52.089844 -5.068359 -1.934456 -116.368187 1.319873 -13.770563 -4.232759 -56.894310 -72.126900 -2.000000 2.000000 0.000000 56.240231 22.910156 74.394531 99.770721 -12.185968 -9.705582 8.234948 17.938608 -24.800993 -31.936346 11.462142 -0.253941 46.384266 -3.958106 -1.757859 -16.993664 -0.482204 2.165581 -30.361679 -11.051583 1.325594 37.243454 4.359030 0.520899 -16.266052 -18.403950 -13.168710 
-4.975016 44.344261 -13.114783 7.187500 -1.816406 6.308593 29.822811 -7.874106 -5.629282 -27.070314 12.041016 -2.216797 41.912281 6.782817 -1.781442 -60.605469 -1.660156 2.705078 2.000000 -2.000000 0.000000 -51.699223 -5.371094 1.123047 -117.380531 1.533660 -12.668928 -8.989826 -56.059460 -68.454269 -2.000000 2.000000 0.000000 57.226563 19.560549 75.126953 102.039375 -12.570900 -9.107367 6.246840 10.142326 -23.381359 -33.918835 13.083388 0.000202 51.664238 -3.821797 -1.861741 -20.107237 0.976877 3.874245 -33.223358 -12.731087 0.690472 37.054199 4.368269 0.547058 -18.770851 -18.265207 -13.060569 
-5.252074 43.026741 -12.949945 5.527344 -2.597656 9.530807 29.822811 -7.874106 -5.629282 -23.759766 13.378908 -3.417969 41.555244 8.513849 -2.353326 -60.878902 -1.630859 2.714566 2.000000 -2.000000 0.000000 -51.376953 -5.644532 4.208024 -118.327850 1.667123 -11.621640 -13.543037 -55.039883 -65.004913 -2.000000 2.000000 0.000000 58.134766 16.162109 75.774200 104.126320 -12.873768 -8.580959 4.088125 2.401771 -21.734325 -35.813385 14.714127 0.271115 56.939964 -3.635605 -1.953488 -23.217152 2.380026 5.754482 -36.089809 -14.461686 0.153873 36.868732 4.364492 0.501174 -21.324444 -18.090879 -12.855000 
-5.529130 41.746017 -12.785104 3.818359 -3.300781 12.812501 29.822811 -7.874106 -5.629282 -20.507813 14.755860 -4.509231 41.251858 10.143261 -3.010942 -61.132816 -1.630859 2.714844 2.000000 -2.000000 0.000000 -51.035156 -5.996093 7.236328 -119.363007 1.812608 -10.545787 -17.871405 -53.907009 -61.791199 -2.000000 2.000000 0.000000 59.033203 12.783204 76.406242 106.425163 -13.239056 -7.991987 1.721402 -5.274439 -19.783203 -37.712334 16.258862 0.475239 62.209049 -3.460867 -2.072400 -26.388897 3.647269 7.667564 -39.008633 -16.199497 -0.341221 36.697418 4.400384 0.507275 -23.841341 -17.899265 -12.736527 
-5.806189 40.354885 -12.620268 2.041016 -3.867188 16.122389 29.822811 -7.874106 -5.629282 -17.236328 16.210938 -5.546875 40.874577 11.713701 -3.603334 -61.416016 -1.611328 2.714844 2.000000 -2.000000 0.000000 -50.732422 -6.328125 10.214845 -120.329926 1.931144 -9.439259 -21.828245 -52.647289 -58.929180 -2.000000 2.000000 0.000000 59.853516 9.316407 76.923820 108.597328 -13.528178 -7.367444 -0.992781 -12.956319 -17.456224 -39.724136 17.938463 0.614143 67.367302 -3.247315 -2.160306 -29.679798 4.870255 9.735695 -41.879570 -17.956963 -0.736988 36.482883 4.374867 0.500724 -26.362816 -17.726067 -12.532193 
-6.083250 38.956402 -12.455428 0.273438 -4.355469 19.443361 29.822811 -7.874106 -5.629282 -14.003906 17.734377 -6.510698 40.484707 13.438353 -4.222594 -61.679688 -1.601562 2.734375 2.000000 -2.000000 0.000000 -50.468750 -6.660156 13.201993 -121.358894 2.036914 -8.400184 -25.565380 -51.300297 -56.280357 -2.000000 2.000000 0.000000 60.634766 5.908203 77.412109 110.791771 -13.775257 -6.799343 -4.176268 -20.481407 -14.625884 -41.743217 19.558180 0.659720 72.551308 -3.053648 -2.247297 -33.050365 5.938093 11.846896 -44.764679 -19.736052 -1.091637 36.295937 4.374776 0.485154 -28.876896 -17.547905 -12.394908 
-6.360305 37.550552 -12.290589 -1.523438 -4.736328 22.783203 29.822811 -7.874106 -5.629282 -10.791016 19.248047 -7.363280 40.081673 15.047889 -4.885305 -61.953129 -1.582031 2.744141 2.000000 -2.000000 0.000000 -50.175781 -7.031250 16.279297 -122.396210 2.108647 -7.281412 -29.185364 -49.806953 -53.815704 -2.000000 2.000000 0.000000 61.425785 2.421875 77.832443 113.081467 -14.055591 -6.167181 -7.905823 -27.757620 -11.225280 -43.689751 21.112474 0.716036 77.811920 -2.849254 -2.301745 -36.296867 6.834288 13.953665 -47.721962 -21.541849 -1.287401 36.096394 4.383879 0.520139 -31.378235 -17.433861 -12.219224 
-6.637363 36.122612 -12.125750 -3.330078 -5.019531 26.123047 29.822811 -7.874106 -5.629282 -7.451171 20.888676 -8.141050 39.647957 16.738184 -5.606707 -62.216793 -1.582031 2.743871 2.000000 -2.000000 0.000000 -49.931641 -7.402343 19.334681 -123.339478 2.205955 -6.242310 -32.588833 -48.201015 -51.526062 -2.000000 2.000000 0.000000 62.148438 -0.996094 78.232246 115.197914 -14.246757 -5.557096 -12.445699 -34.785324 -6.975349 -45.659454 22.761440 0.682663 83.100555 -2.625752 -2.313542 -39.695431 7.642392 16.124044 -50.686764 -23.346550 -1.383397 35.900295 4.383612 0.484309 -33.866890 -17.290625 -11.998053 
-6.914420 34.606358 -11.960911 -5.175781 -5.195313 29.471771 29.822811 -7.874106 -5.629282 -4.248047 22.500002 -8.824389 39.208950 18.351557 -6.249538 -62.490234 -1.552734 2.763407 2.000000 -2.000000 0.000000 -49.716801 -7.822266 22.373047 -124.350586 2.209675 -5.138892 -35.844421 -46.531216 -49.447430 -2.000000 2.000000 0.000000 62.851566 -4.404297 78.583229 117.517517 -14.489634 -4.903617 -18.107094 -41.484974 -1.585291 -47.748150 24.420853 0.579100 88.347832 -2.392388 -2.311388 -43.099545 8.311285 18.365124 -53.698448 -25.145315 -1.392613 35.741627 4.384736 0.499838 -36.393848 -17.165371 -11.834419 
-7.191479 33.148983 -11.796073 -6.972656 -5.234482 32.693905 29.822811 -7.874106 -5.629282 -1.044920 24.150393 -9.429599 38.685493 19.943378 -6.970056 -62.763676 -1.552734 2.763672 2.000000 -2.000000 0.000000 -49.482422 -8.232422 25.263672 -125.297729 2.314579 -4.158549 -38.604202 -44.889885 -47.749031 -2.000000 2.000000 0.000000 63.544926 -7.841796 78.836555 119.578117 -14.658364 -4.351138 -25.341764 -47.684052 5.376213 -49.748508 25.972654 0.366568 93.418221 -2.217195 -2.331624 -46.479584 8.819023 20.663359 -56.740753 -26.930033 -1.343923 35.520912 4.423077 0.493437 -38.973129 -17.061434 -11.650340 
